<?xml version="1.0" standalone="no"?><!DOCTYPE svg PUBLIC "-//W3C//DTD SVG 1.1//EN" "http://www.w3.org/Graphics/SVG/1.1/DTD/svg11.dtd"><svg class="icon" width="200px" height="200.00px" viewBox="0 0 1024 1024" version="1.1" xmlns="http://www.w3.org/2000/svg"><path d="M968.9088 771.1744L512 1024l-3.4816-1.9456L51.2 769.024V254.976L512 0l460.8 254.976v514.048l-3.8912 2.1504zM392.192 401.2032l114.3808 56.1152 115.2-61.44L512 330.0352l-119.808 71.168zM543.4368 518.144v157.5936L664.576 603.648v-152.576L543.4368 518.144zM316.928 365.2608L512 247.9104l178.7904 105.984 154.624-85.9136L512 84.48 150.1184 284.3648l166.8096 80.896z m158.3104 307.6096V521.1136L359.424 464.384v139.3664l115.8144 69.12z m0 243.0976v-163.84L291.2256 643.3792V429.1584L122.1632 347.136v376.1152l353.0752 192.7168z m68.1984-158.3104v163.6352l358.4-200.704V317.3376l-169.0624 94.8224v231.2192L543.4368 757.6576z" fill="#ffffff" /></svg>